<svg width="305" height="120" xmlns="http://www.w3.org/2000/svg" xmlns:xlink="http://www.w3.org/1999/xlink" xml:space="preserve" overflow="hidden"><g transform="translate(-813 -524)"><path d="M79.5915 15.1615 79.5915 76.596M44.092 15.1615 44.092 76.596M79.5915 76.596 29.0881 76.596M29.0881 69.7641 29.0881 119.348" stroke="#010101" stroke-width="0.4467" stroke-miterlimit="10" stroke-dasharray="9.09167 1.81308 1.81308 1.81308" fill="none" transform="matrix(1 0 0 1.00546 813.898 524)"/><path d="M87.7635 69.7641 87.7635 72.9435M102.242 69.7641 122.37 69.7641M87.7635 72.9435 122.343 72.9435M53.1836 69.7641C53.3675 88.9196 68.9495 104.344 88.0788 104.344 104.764 104.344 119.138 92.5195 122.343 76.123M122.37 76.123 122.37 69.7641M122.37 76.123 106.21 76.123M39.9928 15.1615 39.9928 48.6115M83.6906 15.1615 83.6906 48.6115M39.9928 48.6115 83.6643 48.6115" stroke="#010101" stroke-width="0.4467" stroke-miterlimit="10" stroke-dasharray="1.81308 0.919677" fill="none" transform="matrix(1 0 0 1.00546 813.898 524)"/><path d="M35.8937 68.1612 35.8937 66.5846" stroke="#010101" stroke-width="0.4467" stroke-miterlimit="10" fill="none" transform="matrix(1 0 0 1.00546 813.898 524)"/><path d="M35.8937 68.1612 37.0499 68.1612" stroke="#010101" stroke-width="0.4467" stroke-miterlimit="10" fill="none" transform="matrix(1 0 0 1.00546 813.898 524)"/><path d="M37.0499 68.1612 37.0499 69.7641" stroke="#010101" stroke-width="0.4467" stroke-miterlimit="10" fill="none" transform="matrix(1 0 0 1.00546 813.898 524)"/><path d="M87.7635 69.7641 87.7635 66.5846" stroke="#010101" stroke-width="0.4467" stroke-miterlimit="10" fill="none" transform="matrix(1 0 0 1.00546 813.898 524)"/><path d="M53.1836 69.7641 53.1836 66.5846" stroke="#010101" stroke-width="0.4467" stroke-miterlimit="10" fill="none" transform="matrix(1 0 0 1.00546 813.898 524)"/><path d="M34.5273 66.5846 89.1299 66.5846" stroke="#010101" stroke-width="0.4467" stroke-miterlimit="10" fill="none" transform="matrix(1 0 0 1.00546 813.898 524)"/><path d="M34.5273 69.7641 89.1299 69.7641" stroke="#010101" stroke-width="0.4467" stroke-miterlimit="10" fill="none" transform="matrix(1 0 0 1.00546 813.898 524)"/><path d="M39.9928 19.9439 83.6643 19.9439M39.9928 24.043 83.6643 24.043M39.9928 28.1158 83.6643 28.1158M39.9928 32.215 83.6643 32.215M39.9928 36.3141 83.6643 36.3141M39.9928 40.4132 83.6643 40.4132M39.9928 44.5124 83.6643 44.5124M105.053 74.5464 105.053 72.9435M105.053 74.5464 106.183 74.5464M106.21 74.5464 106.21 76.1493" stroke="#010101" stroke-width="0.4467" stroke-miterlimit="10" stroke-dasharray="1.81308 0.919677" fill="none" transform="matrix(1 0 0 1.00546 813.898 524)"/><path d="M1.76052 64.2986 1.76052 69.7904 34.5273 69.7904 1.76052 64.2986Z" fill="#010101" transform="matrix(1 0 0 1.00546 813.898 524)"/><path d="M34.5273 69.7904 29.0355 64.2986 1.76052 64.2986 34.5273 69.7904Z" fill="#010101" transform="matrix(1 0 0 1.00546 813.898 524)"/><path d="M102.163 64.2986 89.0773 69.7904 102.163 69.7904 102.163 64.2986Z" fill="#010101" transform="matrix(1 0 0 1.00546 813.898 524)"/><path d="M94.5691 64.2986 89.0773 69.7904 102.163 64.2986 94.5691 64.2986Z" fill="#010101" transform="matrix(1 0 0 1.00546 813.898 524)"/><path d="M34.5273 15.1615 29.0355 64.2986 34.5273 69.7904 34.5273 15.1615Z" fill="#010101" transform="matrix(1 0 0 1.00546 813.898 524)"/><path d="M89.0773 15.1615 89.0773 69.7904 94.5691 64.2986 89.0773 15.1615Z" fill="#010101" transform="matrix(1 0 0 1.00546 813.898 524)"/><path d="M29.0355 9.74858 29.0355 64.2986 34.5273 15.1615 29.0355 9.74858Z" fill="#010101" transform="matrix(1 0 0 1.00546 813.898 524)"/><path d="M94.5691 9.74858 29.0355 9.74858 34.5273 15.1615 94.5691 9.74858Z" fill="#010101" transform="matrix(1 0 0 1.00546 813.898 524)"/><path d="M94.5691 9.74858 34.5273 15.1615 89.0773 15.1615 94.5691 9.74858Z" fill="#010101" transform="matrix(1 0 0 1.00546 813.898 524)"/><path d="M94.5691 9.74858 89.0773 15.1615 94.5691 64.2986 94.5691 9.74858Z" fill="#010101" transform="matrix(1 0 0 1.00546 813.898 524)"/><path d="M214.889 18.0782 258.508 18.0782M214.889 22.1511 258.508 22.1511M214.889 26.2502 258.508 26.2502M214.889 30.3231 258.508 30.3231M214.889 34.4222 258.508 34.4222" stroke="#010101" stroke-width="2.62765" stroke-miterlimit="10" stroke-dasharray="1.36638 0.683189" fill="none" transform="matrix(1 0 0 1.00546 813.898 524)"/><path d="M262.581 66.2168 262.581 64.6402M262.581 66.2168 261.451 66.2168M261.451 67.7933 261.451 66.2168M245.317 67.7933 245.317 64.6139M209.424 64.6139 263.947 64.6139M209.424 67.7933 263.947 67.7933M209.424 67.7933 209.424 13.2959 263.947 13.2959 263.947 67.7933 296.662 67.7933 296.662 62.3541 269.413 62.3541 269.413 7.85667 203.984 7.85667 203.984 62.3541 176.736 62.3541 176.736 67.7933 209.45 67.7933Z" stroke="#010101" stroke-width="0.4467" stroke-miterlimit="10" fill="none" transform="matrix(1 0 0 1.00546 813.898 524)"/><path d="M210.79 67.7933 230.602 96.0669M233.204 94.2538 213.391 65.9803M210.79 67.7933 213.391 65.9803" stroke="#010101" stroke-width="0.4467" stroke-miterlimit="10" stroke-dasharray="1.36638 0.683189" fill="none" transform="matrix(1 0 0 1.00546 813.898 524)"/><path d="M210.79 67.7933 210.79 64.6139" stroke="#010101" stroke-width="0.4467" stroke-miterlimit="10" fill="none" transform="matrix(1 0 0 1.00546 813.898 524)"/><path d="M235.805 92.4144C242.269 85.8453 245.895 76.9901 245.895 67.7933M224.611 79.1973 223.324 80.117M224.611 79.1973 225.268 80.117M225.242 80.117 226.556 79.1973M235.805 92.4144 226.556 79.1973M230.602 96.0669 235.805 92.4144" stroke="#010101" stroke-width="0.4467" stroke-miterlimit="10" stroke-dasharray="1.36638 0.683189" fill="none" transform="matrix(1 0 0 1.00546 813.898 524)"/><path d="M218.962 13.2959 218.962 59.1747" stroke="#010101" stroke-width="0.4467" stroke-miterlimit="10" stroke-dasharray="6.80561 1.36638 1.36638 1.36638" fill="none" transform="matrix(1 0 0 1.00546 813.898 524)"/><path d="M254.409 13.2959 254.409 117.272" stroke="#010101" stroke-width="0.4467" stroke-miterlimit="10" stroke-dasharray="6.80561 1.36638 1.36638 1.36638" fill="none" transform="matrix(1 0 0 1.00546 813.898 524)"/><path d="M218.962 59.1747 254.409 59.1747" stroke="#010101" stroke-width="0.4467" stroke-miterlimit="10" stroke-dasharray="6.80561 1.36638 1.36638 1.36638" fill="none" transform="matrix(1 0 0 1.00546 813.898 524)"/><path d="M214.889 29.9815 258.508 29.9815M214.889 25.9086 258.508 25.9086M214.889 21.8095 258.508 21.8095M214.889 17.7366 258.508 17.7366M214.889 34.4222 258.508 34.4222M214.889 38.4951 258.508 38.4951M214.889 42.5942 258.508 42.5942M214.889 46.6933 258.508 46.6933" stroke="#010101" stroke-width="0.4467" stroke-miterlimit="10" stroke-dasharray="1.36638 0.683189" fill="none" transform="matrix(1 0 0 1.00546 813.898 524)"/><path d="M214.889 13.2959 214.889 46.667M258.482 13.2959 258.482 46.667" stroke="#010101" stroke-width="0.4467" stroke-miterlimit="10" stroke-dasharray="1.36638 0.683189" fill="none" transform="matrix(1 0 0 1.00546 813.898 524)"/><path d="M176.657 62.4067 176.657 67.8196 209.424 67.8196 176.657 62.4067Z" fill="#010101" transform="matrix(1 0 0 1.00546 813.898 524)"/><path d="M296.635 62.4067 263.868 67.8196 296.635 67.8196 296.635 62.4067Z" fill="#010101" transform="matrix(1 0 0 1.00546 813.898 524)"/><path d="M203.932 62.4067 176.657 62.4067 209.424 67.8196 203.932 62.4067Z" fill="#010101" transform="matrix(1 0 0 1.00546 813.898 524)"/><path d="M269.36 62.4067 263.868 67.8196 296.635 62.4067 269.36 62.4067Z" fill="#010101" transform="matrix(1 0 0 1.00546 813.898 524)"/><path d="M209.424 13.3485 203.932 62.4067 209.424 67.8196 209.424 13.3485Z" fill="#010101" transform="matrix(1 0 0 1.00546 813.898 524)"/><path d="M263.868 13.3485 263.868 67.8196 269.36 62.4067 263.868 13.3485Z" fill="#010101" transform="matrix(1 0 0 1.00546 813.898 524)"/><path d="M203.932 7.85667 203.932 62.4067 209.424 13.3485 203.932 7.85667Z" fill="#010101" transform="matrix(1 0 0 1.00546 813.898 524)"/><path d="M269.36 7.85667 203.932 7.85667 209.424 13.3485 269.36 7.85667Z" fill="#010101" transform="matrix(1 0 0 1.00546 813.898 524)"/><path d="M269.36 7.85667 209.424 13.3485 263.868 13.3485 269.36 7.85667Z" fill="#010101" transform="matrix(1 0 0 1.00546 813.898 524)"/><path d="M269.36 7.85667 263.868 13.3485 269.36 62.4067 269.36 7.85667Z" fill="#010101" transform="matrix(1 0 0 1.00546 813.898 524)"/></g></svg>