<svg width="455" height="114" xmlns="http://www.w3.org/2000/svg" xmlns:xlink="http://www.w3.org/1999/xlink" xml:space="preserve" overflow="hidden"><defs><clipPath id="clip0"><rect x="800" y="239" width="455" height="114"/></clipPath><clipPath id="clip1"><rect x="1103" y="239" width="138" height="110"/></clipPath><clipPath id="clip2"><rect x="1103" y="239" width="138" height="110"/></clipPath><clipPath id="clip3"><rect x="1103" y="239" width="138" height="110"/></clipPath></defs><g clip-path="url(#clip0)" transform="translate(-800 -239)"><path d="M177.523 41.8485 178.984 41.8485M178.984 41.8485 178.984 42.8999M178.984 42.8999 180.446 42.8999" stroke="#010101" stroke-width="2.56425" stroke-miterlimit="10" stroke-dasharray="1.46162 0.743632" fill="none" transform="matrix(1 0 0 1.0022 802.128 239)"/><path d="M282.349 13.3854 282.349 53.5671M278.58 13.3854 278.58 53.5671M274.81 13.3854 274.81 53.5671M271.041 13.3854 271.041 53.5671M267.271 13.3854 267.271 53.5671M263.502 13.3854 263.502 53.5671M259.758 13.3854 259.758 53.5671M255.989 13.3854 255.989 53.5671M252.219 13.3854 252.219 53.5671M248.45 13.3854 248.45 53.5671M244.68 13.3854 244.68 53.5671M240.911 13.3854 240.911 53.5671M237.142 13.3854 237.142 53.5671M233.372 13.3854 233.372 53.5671M229.603 13.3854 229.603 53.5671M225.859 13.3854 225.859 53.5671M222.089 13.3854 222.089 53.5671" stroke="#010101" stroke-width="2.56425" stroke-miterlimit="10" stroke-dasharray="1.46162 0.743632" fill="none" transform="matrix(1 0 0 1.0022 802.128 239)"/><path d="M286.683 8.41073 286.683 58.67M286.683 58.67 223.09 58.67M223.064 63.6703 291.734 63.6703M176.215 8.41073 286.657 8.41073M291.76 3.38481 291.76 63.6446M176.215 63.6703 176.215 8.41073M171.215 3.38481 171.215 58.6443M171.215 58.67 141.059 58.67M141.059 63.6703 176.241 63.6703" stroke="#010101" stroke-width="2.56425" stroke-miterlimit="10" fill="none" transform="matrix(1 0 0 1.0022 802.128 239)"/><path d="M286.734 17.1548 192.575 17.1548M286.734 49.7977 192.575 49.7977M192.575 97.5183 192.575 17.1548" stroke="#010101" stroke-width="0.41028" stroke-miterlimit="10" stroke-dasharray="7.33375 1.46162 1.46162 1.46162" fill="none" transform="matrix(1 0 0 1.0022 802.128 239)"/><path d="M177.523 60.6957 177.523 41.8742M180.446 42.8999 180.446 60.6957M196.344 60.6957C196.344 50.8747 188.78 42.6947 178.984 41.8742M195.293 63.619C195.293 78.2865 207.217 90.1846 221.884 90.1846 236.552 90.1846 247.655 79.1583 248.45 65.0806M221.884 63.619 221.884 66.5422M221.884 66.5422 247.424 66.5422M286.734 13.3854 218.32 13.3854M286.734 53.5671 218.32 53.5671M218.32 13.3854 218.32 53.5671" stroke="#010101" stroke-width="0.41028" stroke-miterlimit="10" stroke-dasharray="1.46162 0.743632" fill="none" transform="matrix(1 0 0 1.0022 802.128 239)"/><path d="M196.344 62.1573 196.344 60.6957M195.293 62.1573 196.344 62.1573M195.293 63.619 195.293 62.1573M177.497 60.6957 177.497 63.619M221.859 63.619 221.859 60.6957M223.115 60.6957 176.241 60.6957M223.115 63.619 176.241 63.619" stroke="#010101" stroke-width="0.41028" stroke-miterlimit="10" fill="none" transform="matrix(1 0 0 1.0022 802.128 239)"/><path d="M282.349 13.3854 282.349 53.5671" stroke="#010101" stroke-width="0.41028" stroke-miterlimit="10" stroke-dasharray="1.46162 0.743632" fill="none" transform="matrix(1 0 0 1.0022 802.128 239)"/><path d="M278.58 13.3854 278.58 53.5671" stroke="#010101" stroke-width="0.41028" stroke-miterlimit="10" stroke-dasharray="1.46162 0.743632" fill="none" transform="matrix(1 0 0 1.0022 802.128 239)"/><path d="M274.81 13.3854 274.81 53.5671" stroke="#010101" stroke-width="0.41028" stroke-miterlimit="10" stroke-dasharray="1.46162 0.743632" fill="none" transform="matrix(1 0 0 1.0022 802.128 239)"/><path d="M271.041 13.3854 271.041 53.5671" stroke="#010101" stroke-width="0.41028" stroke-miterlimit="10" stroke-dasharray="1.46162 0.743632" fill="none" transform="matrix(1 0 0 1.0022 802.128 239)"/><path d="M267.271 13.3854 267.271 53.5671" stroke="#010101" stroke-width="0.41028" stroke-miterlimit="10" stroke-dasharray="1.46162 0.743632" fill="none" transform="matrix(1 0 0 1.0022 802.128 239)"/><path d="M263.502 13.3854 263.502 53.5671" stroke="#010101" stroke-width="0.41028" stroke-miterlimit="10" stroke-dasharray="1.46162 0.743632" fill="none" transform="matrix(1 0 0 1.0022 802.128 239)"/><path d="M259.758 13.3854 259.758 53.5671" stroke="#010101" stroke-width="0.41028" stroke-miterlimit="10" stroke-dasharray="1.46162 0.743632" fill="none" transform="matrix(1 0 0 1.0022 802.128 239)"/><path d="M255.989 13.3854 255.989 53.5671" stroke="#010101" stroke-width="0.41028" stroke-miterlimit="10" stroke-dasharray="1.46162 0.743632" fill="none" transform="matrix(1 0 0 1.0022 802.128 239)"/><path d="M252.219 13.3854 252.219 53.5671" stroke="#010101" stroke-width="0.41028" stroke-miterlimit="10" stroke-dasharray="1.46162 0.743632" fill="none" transform="matrix(1 0 0 1.0022 802.128 239)"/><path d="M248.45 13.3854 248.45 53.5671" stroke="#010101" stroke-width="0.41028" stroke-miterlimit="10" stroke-dasharray="1.46162 0.743632" fill="none" transform="matrix(1 0 0 1.0022 802.128 239)"/><path d="M244.68 13.3854 244.68 53.5671" stroke="#010101" stroke-width="0.41028" stroke-miterlimit="10" stroke-dasharray="1.46162 0.743632" fill="none" transform="matrix(1 0 0 1.0022 802.128 239)"/><path d="M240.911 13.3854 240.911 53.5671" stroke="#010101" stroke-width="0.41028" stroke-miterlimit="10" stroke-dasharray="1.46162 0.743632" fill="none" transform="matrix(1 0 0 1.0022 802.128 239)"/><path d="M237.142 13.3854 237.142 53.5671" stroke="#010101" stroke-width="0.41028" stroke-miterlimit="10" stroke-dasharray="1.46162 0.743632" fill="none" transform="matrix(1 0 0 1.0022 802.128 239)"/><path d="M233.372 13.3854 233.372 53.5671" stroke="#010101" stroke-width="0.41028" stroke-miterlimit="10" stroke-dasharray="1.46162 0.743632" fill="none" transform="matrix(1 0 0 1.0022 802.128 239)"/><path d="M229.603 13.3854 229.603 53.5671" stroke="#010101" stroke-width="0.41028" stroke-miterlimit="10" stroke-dasharray="1.46162 0.743632" fill="none" transform="matrix(1 0 0 1.0022 802.128 239)"/><path d="M225.859 13.3854 225.859 53.5671" stroke="#010101" stroke-width="0.41028" stroke-miterlimit="10" stroke-dasharray="1.46162 0.743632" fill="none" transform="matrix(1 0 0 1.0022 802.128 239)"/><path d="M222.089 13.3854 222.089 53.5671" stroke="#010101" stroke-width="0.41028" stroke-miterlimit="10" stroke-dasharray="1.46162 0.743632" fill="none" transform="matrix(1 0 0 1.0022 802.128 239)"/><path d="M248.45 65.0806 248.45 63.619" stroke="#010101" stroke-width="0.41028" stroke-miterlimit="10" stroke-dasharray="1.46162 0.743632" fill="none" transform="matrix(1 0 0 1.0022 802.128 239)"/><path d="M248.45 65.0806 247.399 65.0806" stroke="#010101" stroke-width="0.41028" stroke-miterlimit="10" stroke-dasharray="1.46162 0.743632" fill="none" transform="matrix(1 0 0 1.0022 802.128 239)"/><path d="M247.399 65.0806 247.399 66.5422" stroke="#010101" stroke-width="0.41028" stroke-miterlimit="10" stroke-dasharray="1.46162 0.743632" fill="none" transform="matrix(1 0 0 1.0022 802.128 239)"/><path d="M223.064 58.67 223.064 63.6703 291.76 63.6703 223.064 58.67Z" fill="#010101" transform="matrix(1 0 0 1.0022 802.128 239)"/><path d="M141.059 58.67 141.059 63.6703 176.215 63.6703 141.059 58.67Z" fill="#010101" transform="matrix(1 0 0 1.0022 802.128 239)"/><path d="M176.215 63.6703 171.215 58.67 141.059 58.67 176.215 63.6703Z" fill="#010101" transform="matrix(1 0 0 1.0022 802.128 239)"/><path d="M286.683 58.67 223.064 58.67 291.76 63.6703 286.683 58.67Z" fill="#010101" transform="matrix(1 0 0 1.0022 802.128 239)"/><path d="M176.215 8.41073 171.215 58.67 176.215 63.6703 176.215 8.41073Z" fill="#010101" transform="matrix(1 0 0 1.0022 802.128 239)"/><path d="M286.683 8.41073 286.683 58.67 291.76 63.6703 286.683 8.41073Z" fill="#010101" transform="matrix(1 0 0 1.0022 802.128 239)"/><path d="M171.215 3.38481 171.215 58.67 176.215 8.41073 171.215 3.38481Z" fill="#010101" transform="matrix(1 0 0 1.0022 802.128 239)"/><path d="M176.215 8.41073 291.76 3.38481 171.215 3.38481 176.215 8.41073Z" fill="#010101" transform="matrix(1 0 0 1.0022 802.128 239)"/><path d="M291.76 3.38481 176.215 8.41073 286.683 8.41073 291.76 3.38481Z" fill="#010101" transform="matrix(1 0 0 1.0022 802.128 239)"/><path d="M291.76 3.38481 286.683 8.41073 291.76 63.6703 291.76 3.38481Z" fill="#010101" transform="matrix(1 0 0 1.0022 802.128 239)"/><path d="M39.0791 63.2856 39.0791 66.3114M39.0791 66.3114 18.0523 66.3114M16.9753 64.7985C17.7702 76.4146 27.4374 85.4407 39.0791 85.4407 51.3106 85.4407 61.2342 75.5171 61.2342 63.2856M60.5932 68.6449C63.183 82.0303 74.876 91.6975 88.5178 91.6975 103.057 91.6975 115.237 80.7481 116.801 66.2858" stroke="#010101" stroke-width="0.435922" stroke-miterlimit="10" stroke-dasharray="1.74369 0.871844" fill="none" transform="matrix(1 0 0 1.0022 802.128 239)"/><path d="M61.2086 63.2856 61.2086 61.7727" stroke="#010101" stroke-width="0.435922" stroke-miterlimit="10" fill="none" transform="matrix(1 0 0 1.0022 802.128 239)"/><path d="M61.2086 61.7727 60.106 61.7727" stroke="#010101" stroke-width="0.435922" stroke-miterlimit="10" fill="none" transform="matrix(1 0 0 1.0022 802.128 239)"/><path d="M60.106 61.7727 60.106 60.2342" stroke="#010101" stroke-width="0.435922" stroke-miterlimit="10" fill="none" transform="matrix(1 0 0 1.0022 802.128 239)"/><path d="M88.5178 63.2856 88.5178 60.2342" stroke="#010101" stroke-width="0.435922" stroke-miterlimit="10" fill="none" transform="matrix(1 0 0 1.0022 802.128 239)"/><path d="M39.0791 63.2856 39.0791 60.2342" stroke="#010101" stroke-width="0.435922" stroke-miterlimit="10" fill="none" transform="matrix(1 0 0 1.0022 802.128 239)"/><path d="M37.797 60.2342 89.8256 60.2342" stroke="#010101" stroke-width="0.435922" stroke-miterlimit="10" fill="none" transform="matrix(1 0 0 1.0022 802.128 239)"/><path d="M37.797 63.2856 89.8256 63.2856" stroke="#010101" stroke-width="0.435922" stroke-miterlimit="10" fill="none" transform="matrix(1 0 0 1.0022 802.128 239)"/><path d="M63.7985 11.257 63.7985 100.236" stroke="#010101" stroke-width="0.435922" stroke-miterlimit="10" stroke-dasharray="8.66716 1.74369 1.74369 1.74369" fill="none" transform="matrix(1 0 0 1.0022 802.128 239)"/><path d="M43.0024 11.257 43.0024 54.8236" stroke="#010101" stroke-width="0.435922" stroke-miterlimit="10" stroke-dasharray="1.74369 0.871844" fill="none" transform="matrix(1 0 0 1.0022 802.128 239)"/><path d="M84.6202 11.257 84.6202 54.8236" stroke="#010101" stroke-width="0.435922" stroke-miterlimit="10" stroke-dasharray="1.74369 0.871844" fill="none" transform="matrix(1 0 0 1.0022 802.128 239)"/><path d="M43.0024 15.8214 84.6202 15.8214" stroke="#010101" stroke-width="0.435922" stroke-miterlimit="10" stroke-dasharray="1.74369 0.871844" fill="none" transform="matrix(1 0 0 1.0022 802.128 239)"/><path d="M43.0024 19.7191 84.6202 19.7191" stroke="#010101" stroke-width="0.435922" stroke-miterlimit="10" stroke-dasharray="1.74369 0.871844" fill="none" transform="matrix(1 0 0 1.0022 802.128 239)"/><path d="M43.0024 23.6167 84.6202 23.6167" stroke="#010101" stroke-width="0.435922" stroke-miterlimit="10" stroke-dasharray="1.74369 0.871844" fill="none" transform="matrix(1 0 0 1.0022 802.128 239)"/><path d="M43.0024 27.5144 84.6202 27.5144" stroke="#010101" stroke-width="0.435922" stroke-miterlimit="10" stroke-dasharray="1.74369 0.871844" fill="none" transform="matrix(1 0 0 1.0022 802.128 239)"/><path d="M43.0024 31.412 84.6202 31.412" stroke="#010101" stroke-width="0.435922" stroke-miterlimit="10" stroke-dasharray="1.74369 0.871844" fill="none" transform="matrix(1 0 0 1.0022 802.128 239)"/><path d="M43.0024 35.3097 84.6202 35.3097" stroke="#010101" stroke-width="0.435922" stroke-miterlimit="10" stroke-dasharray="1.74369 0.871844" fill="none" transform="matrix(1 0 0 1.0022 802.128 239)"/><path d="M43.0024 39.2073 84.6202 39.2073" stroke="#010101" stroke-width="0.435922" stroke-miterlimit="10" stroke-dasharray="1.74369 0.871844" fill="none" transform="matrix(1 0 0 1.0022 802.128 239)"/><path d="M43.0024 43.1306 84.6202 43.1306" stroke="#010101" stroke-width="0.435922" stroke-miterlimit="10" stroke-dasharray="1.74369 0.871844" fill="none" transform="matrix(1 0 0 1.0022 802.128 239)"/><path d="M43.0024 47.0283 84.6202 47.0283" stroke="#010101" stroke-width="0.435922" stroke-miterlimit="10" stroke-dasharray="1.74369 0.871844" fill="none" transform="matrix(1 0 0 1.0022 802.128 239)"/><path d="M43.0024 50.9259 84.6202 50.9259" stroke="#010101" stroke-width="0.435922" stroke-miterlimit="10" stroke-dasharray="1.74369 0.871844" fill="none" transform="matrix(1 0 0 1.0022 802.128 239)"/><path d="M43.0024 54.8236 84.6202 54.8236" stroke="#010101" stroke-width="0.435922" stroke-miterlimit="10" stroke-dasharray="1.74369 0.871844" fill="none" transform="matrix(1 0 0 1.0022 802.128 239)"/><path d="M115.827 64.7985 115.827 63.2856" stroke="#010101" stroke-width="0.435922" stroke-miterlimit="10" stroke-dasharray="1.74369 0.871844" fill="none" transform="matrix(1 0 0 1.0022 802.128 239)"/><path d="M116.93 64.7985 115.827 64.7985" stroke="#010101" stroke-width="0.435922" stroke-miterlimit="10" stroke-dasharray="1.74369 0.871844" fill="none" transform="matrix(1 0 0 1.0022 802.128 239)"/><path d="M116.93 66.3114 116.93 64.7985" stroke="#010101" stroke-width="0.435922" stroke-miterlimit="10" stroke-dasharray="1.74369 0.871844" fill="none" transform="matrix(1 0 0 1.0022 802.128 239)"/><path d="M88.5178 63.2856 88.5178 66.3114" stroke="#010101" stroke-width="0.435922" stroke-miterlimit="10" stroke-dasharray="1.74369 0.871844" fill="none" transform="matrix(1 0 0 1.0022 802.128 239)"/><path d="M88.5178 66.3114 116.93 66.3114" stroke="#010101" stroke-width="0.435922" stroke-miterlimit="10" stroke-dasharray="1.74369 0.871844" fill="none" transform="matrix(1 0 0 1.0022 802.128 239)"/><path d="M121.032 58.1058 121.032 63.3369M6.51319 58.1058 6.51319 63.3369" stroke="#010101" stroke-width="2.56425" stroke-miterlimit="10" fill="none" transform="matrix(1 0 0 1.0022 802.128 239)"/><path d="M6.51319 58.1058 6.51319 63.3369 37.7714 63.3369 6.51319 58.1058Z" fill="#010101" transform="matrix(1 0 0 1.0022 802.128 239)"/><path d="M121.032 58.1058 89.7743 63.3369 121.032 63.3369 121.032 58.1058Z" fill="#010101" transform="matrix(1 0 0 1.0022 802.128 239)"/><path d="M32.5403 58.1058 6.51319 58.1058 37.7714 63.3369 32.5403 58.1058Z" fill="#010101" transform="matrix(1 0 0 1.0022 802.128 239)"/><path d="M94.9797 58.1058 89.7743 63.3369 121.032 58.1058 94.9797 58.1058Z" fill="#010101" transform="matrix(1 0 0 1.0022 802.128 239)"/><path d="M37.7714 11.257 32.5403 58.1058 37.7714 63.3369 37.7714 11.257Z" fill="#010101" transform="matrix(1 0 0 1.0022 802.128 239)"/><path d="M89.7743 11.257 89.7743 63.3369 94.9797 58.1058 89.7743 11.257Z" fill="#010101" transform="matrix(1 0 0 1.0022 802.128 239)"/><path d="M32.5403 6.12855 32.5403 58.1058 37.7714 11.257 32.5403 6.12855Z" fill="#010101" transform="matrix(1 0 0 1.0022 802.128 239)"/><path d="M94.9797 6.12855 32.5403 6.12855 37.7714 11.257 94.9797 6.12855Z" fill="#010101" transform="matrix(1 0 0 1.0022 802.128 239)"/><path d="M94.9797 6.12855 37.7714 11.257 89.7743 11.257 94.9797 6.12855Z" fill="#010101" transform="matrix(1 0 0 1.0022 802.128 239)"/><path d="M94.9797 6.12855 89.7743 11.257 94.9797 58.1058 94.9797 6.12855Z" fill="#010101" transform="matrix(1 0 0 1.0022 802.128 239)"/><path d="M16.9753 64.7985 16.9753 63.2856M18.0523 64.7985 16.9753 64.7985M18.0523 66.3114 18.0523 64.7985" stroke="#010101" stroke-width="0.435922" stroke-miterlimit="10" stroke-dasharray="1.74369 0.871844" fill="none" transform="matrix(1 0 0 1.0022 802.128 239)"/><g clip-path="url(#clip1)"><path d="M331.762 6.79526 331.762 57.7212M331.762 57.7212 306.299 57.7212M387.791 62.8497 447.794 62.8497M336.865 11.8981 336.865 62.8241 306.299 62.8241M336.865 11.8981 387.791 11.8981 387.791 62.8241" stroke="#010101" stroke-width="2.56425" stroke-miterlimit="10" fill="none" transform="matrix(1 0 0 1.0022 802.128 239)"/></g><g clip-path="url(#clip2)"><path d="M392.894 6.79526 392.894 57.7212 447.794 57.7212" stroke="#010101" stroke-width="2.56425" stroke-miterlimit="10" fill="none" transform="matrix(1 0 0 1.0022 802.128 239)"/></g><g clip-path="url(#clip3)"><path d="M447.794 57.7212 447.794 62.8241M306.299 57.7212 306.299 62.8241" stroke="#010101" stroke-width="2.56425" stroke-miterlimit="10" fill="none" transform="matrix(1 0 0 1.0022 802.128 239)"/></g><path d="M387.791 62.8497 437.922 62.8497 437.922 58.5674 387.791 62.8497Z" fill="#010101" transform="matrix(1 0 0 1.0022 802.128 239)"/><path d="M306.299 57.7212 306.299 62.8497 336.865 62.8497 306.299 57.7212Z" fill="#010101" transform="matrix(1 0 0 1.0022 802.128 239)"/><path d="M331.762 57.7212 306.274 57.7212 336.865 62.8497 331.762 57.7212Z" fill="#010101" transform="matrix(1 0 0 1.0022 802.128 239)"/><path d="M392.894 57.7212 387.791 62.8497 437.922 58.5674 437.922 57.7212 392.894 57.7212Z" fill="#010101" transform="matrix(1 0 0 1.0022 802.128 239)"/><path d="M336.865 11.8981 331.762 57.7212 336.865 62.8497 336.865 11.8981Z" fill="#010101" transform="matrix(1 0 0 1.0022 802.128 239)"/><path d="M387.791 11.8981 387.791 62.8497 392.894 57.7212 387.791 11.8981Z" fill="#010101" transform="matrix(1 0 0 1.0022 802.128 239)"/><path d="M331.762 6.79526 331.762 57.7212 336.865 11.9237 331.762 6.79526Z" fill="#010101" transform="matrix(1 0 0 1.0022 802.128 239)"/><path d="M392.894 6.79526 331.762 6.79526 336.865 11.9237 392.894 6.79526Z" fill="#010101" transform="matrix(1 0 0 1.0022 802.128 239)"/><path d="M392.894 6.79526 336.865 11.9237 387.791 11.9237 392.894 6.79526Z" fill="#010101" transform="matrix(1 0 0 1.0022 802.128 239)"/><path d="M392.894 6.79526 387.791 11.9237 392.894 57.7212 392.894 6.79526Z" fill="#010101" transform="matrix(1 0 0 1.0022 802.128 239)"/><path d="M345.814 11.8468 345.814 86.0818" stroke="#010101" stroke-width="0.435922" stroke-miterlimit="10" stroke-dasharray="7.43632 1.48726 1.48726 1.48726" fill="none" transform="matrix(1 0 0 1.0022 802.128 239)"/><path d="M378.944 11.8468 378.944 86.0818" stroke="#010101" stroke-width="0.435922" stroke-miterlimit="10" stroke-dasharray="7.43632 1.48726 1.48726 1.48726" fill="none" transform="matrix(1 0 0 1.0022 802.128 239)"/><path d="M345.814 86.0818 426.101 86.0818" stroke="#010101" stroke-width="0.435922" stroke-miterlimit="10" stroke-dasharray="7.43632 1.48726 1.48726 1.48726" fill="none" transform="matrix(1 0 0 1.0022 802.128 239)"/><path d="M426.101 62.7728 426.101 113.75" stroke="#010101" stroke-width="0.435922" stroke-miterlimit="10" stroke-dasharray="7.43632 1.48726 1.48726 1.48726" fill="none" transform="matrix(1 0 0 1.0022 802.128 239)"/><path d="M386.586 62.7728 386.586 65.7473" stroke="#010101" stroke-width="0.435922" stroke-miterlimit="10" stroke-dasharray="1.48726 0.743632" fill="none" transform="matrix(1 0 0 1.0022 802.128 239)"/><path d="M386.586 65.7473 414.408 65.7473" stroke="#010101" stroke-width="0.435922" stroke-miterlimit="10" stroke-dasharray="1.48726 0.743632" fill="none" transform="matrix(1 0 0 1.0022 802.128 239)"/><path d="M338.173 62.7728 338.173 65.7473" stroke="#010101" stroke-width="0.435922" stroke-miterlimit="10" stroke-dasharray="1.48726 0.743632" fill="none" transform="matrix(1 0 0 1.0022 802.128 239)"/><path d="M338.173 65.7473 317.582 65.7473" stroke="#010101" stroke-width="0.435922" stroke-miterlimit="10" stroke-dasharray="1.48726 0.743632" fill="none" transform="matrix(1 0 0 1.0022 802.128 239)"/><path d="M316.505 64.26C317.274 75.6453 326.762 84.4663 338.173 84.4663 350.148 84.4663 359.892 74.7478 359.892 62.7728" stroke="#010101" stroke-width="0.435922" stroke-miterlimit="10" stroke-dasharray="1.48726 0.743632" fill="none" transform="matrix(1 0 0 1.0022 802.128 239)"/><path d="M359.225 68.0551C361.764 81.1584 373.226 90.6461 386.586 90.6461 400.817 90.6461 412.767 79.9019 414.28 65.7473" stroke="#010101" stroke-width="0.435922" stroke-miterlimit="10" stroke-dasharray="1.48726 0.743632" fill="none" transform="matrix(1 0 0 1.0022 802.128 239)"/><path d="M359.841 62.7728 359.841 61.2855M359.841 61.2855 358.789 61.2855M358.764 61.2855 358.764 59.7982M386.586 62.7728 386.586 59.7982M338.173 62.7728 338.173 59.7982M336.891 59.7982 387.842 59.7982M336.891 62.7728 387.842 62.7728" stroke="#010101" stroke-width="0.435922" stroke-miterlimit="10" fill="none" transform="matrix(1 0 0 1.0022 802.128 239)"/><path d="M341.994 27.7708 382.765 27.7708M341.994 16.283 382.765 16.283M341.994 20.1037 382.765 20.1037M341.994 23.9244 382.765 23.9244M341.994 11.8468 382.765 11.8468M341.994 31.5915 382.765 31.5915M341.994 35.4123 382.765 35.4123M341.994 39.233 382.765 39.233M341.994 43.0537 382.765 43.0537M341.994 46.8744 382.765 46.8744M341.994 50.6952 382.765 50.6952M341.994 11.8468 341.994 54.5159M341.994 54.5159 382.765 54.5159M382.765 11.8468 382.765 54.5159M414.408 65.7473 414.408 64.26M414.408 64.26 413.357 64.26M413.357 64.26 413.357 62.7728M317.582 65.7473 317.582 64.26M317.582 64.26 316.531 64.26M316.505 64.26 316.505 62.7728" stroke="#010101" stroke-width="0.435922" stroke-miterlimit="10" stroke-dasharray="1.48726 0.743632" fill="none" transform="matrix(1 0 0 1.0022 802.128 239)"/></g></svg>