# Alias OBJ Model File
# Exported from SketchUp, (c) 2000-2012 Trimble Navigation Limited
# File units = millimeters

mtllib cubicle draft.mtl

g Mesh1 Group1 Model

usemtl Wood_OSB
v 2644.68 0 -2225.84
vt 0 0
vn 0 -1 -0
v 2644.68 0 -6567.84
vt 0 170.945
v 2752.68 0 -6567.84
vt -4.25197 170.945
v 2752.68 0 -2225.84
vt -4.25197 0
f 1/1/1 2/2/1 3/3/1 4/4/1 

vt -170.945 0
vn -1 0 -0
v 2644.68 2837 -2225.84
vt 0 111.693
v 2644.68 2837 -6567.84
vt -170.945 111.693
f 2/5/2 1/1/2 5/6/2 6/7/2 

vn 0 0 1
vt 4.25197 0
v 2752.68 2837 -2225.84
vt 4.25197 111.693
f 1/1/3 4/8/3 7/9/3 5/6/3 

vn 1 0 -0
vt 170.945 0
v 2752.68 2837 -6567.84
vt 170.945 111.693
f 4/1/4 3/10/4 8/11/4 7/6/4 

vn 0 0 -1
vt -4.25197 111.693
f 3/4/5 2/1/5 6/6/5 8/12/5 

vn 0 1 -0
vt 4.25197 170.945
f 6/2/6 5/1/6 7/8/6 8/13/6 

g Mesh2 Group2 Model

v 4437.68 0 -2225.84
v 4437.68 0 -6567.84
v 4545.68 0 -6567.84
v 4545.68 0 -2225.84
f 9/1/1 10/2/1 11/3/1 12/4/1 

v 4437.68 2837 -2225.84
v 4437.68 2837 -6567.84
f 10/5/2 9/1/2 13/6/2 14/7/2 

v 4545.68 2837 -2225.84
f 9/1/3 12/8/3 15/9/3 13/6/3 

v 4545.68 2837 -6567.84
f 12/1/4 11/10/4 16/11/4 15/6/4 

f 11/4/5 10/1/5 14/6/5 16/12/5 

f 14/2/6 13/1/6 15/8/6 16/13/6 

g Mesh3 Group3 Model

usemtl Wood_Cherry_Original
vt 0 4.48819
v 3021.68 0 -2225.84
vt -14.8425 4.48819
v 3021.68 0 -2111.84
vt -14.8425 0
v 2644.68 0 -2111.84
f 1/14/1 17/15/1 18/16/1 19/1/1 

v 3021.68 2837 -2225.84
vt -14.8425 111.693
f 17/16/5 1/1/5 5/6/5 20/17/5 

vt -4.48819 0
v 2644.68 2837 -2111.84
vt -4.48819 111.693
f 1/18/2 19/1/2 21/6/2 5/19/2 

vt 14.8425 0
v 3021.68 2837 -2111.84
vt 14.8425 111.693
f 19/1/3 18/20/3 22/21/3 21/6/3 

vt 4.48819 0
vt 4.48819 111.693
f 18/1/4 17/22/4 20/23/4 22/6/4 

vt 14.8425 4.48819
f 20/24/6 5/14/6 21/1/6 22/20/6 

g Mesh4 Group4 Model

v 4168.68 0 -2225.84
v 4545.68 0 -2111.84
v 4168.68 0 -2111.84
f 23/14/1 12/15/1 24/16/1 25/1/1 

v 4168.68 2837 -2225.84
f 12/16/5 23/1/5 26/6/5 15/17/5 

v 4168.68 2837 -2111.84
f 23/18/2 25/1/2 27/6/2 26/19/2 

v 4545.68 2837 -2111.84
f 25/1/3 24/20/3 28/21/3 27/6/3 

f 24/1/4 12/22/4 15/23/4 28/6/4 

f 15/24/6 26/14/6 27/1/6 28/20/6 

g Mesh5 Group5 Model

usemtl Wood_OSB
v 3117.93 0 -2164.75
v 3021.68 0 -2225.84
v 3636.27 0 -3194.28
vt -45.1575 4.48819
v 3732.53 0 -3133.2
vt -45.1575 0
f 29/1/1 30/14/1 31/25/1 32/26/1 

vn -0.535827 0 0.844328
v 3117.93 2837 -2164.75
v 3021.68 2837 -2225.84
f 30/18/7 29/1/7 33/6/7 34/19/7 

vn 0.844328 0 0.535827
vt 45.1575 0
v 3732.53 2837 -3133.2
vt 45.1575 111.693
f 29/1/8 32/27/8 35/28/8 33/6/8 

vn 0.535827 0 -0.844328
v 3636.27 2837 -3194.28
f 32/1/9 31/22/9 36/23/9 35/6/9 

vn -0.844328 0 -0.535827
vt -45.1575 111.693
f 31/26/10 30/1/10 34/6/10 36/29/10 

vt 45.1575 4.48819
f 34/14/6 33/1/6 35/27/6 36/30/6 

g Mesh6 Group6 Model

usemtl FrontColor
vt 0 175.433
vt 74.8425 0
vt 74.8425 175.433
f 2/31/6 19/1/6 24/32/6 11/33/6 

vt -175.433 0
v 2644.68 -83 -6567.84
vt -175.433 -3.26772
v 2644.68 -83 -2111.84
vt 0 -3.26772
f 19/1/2 2/34/2 37/35/2 38/36/2 

vt -74.8425 0
v 4545.68 -83 -6567.84
vt -74.8425 -3.26772
f 2/1/5 11/37/5 39/38/5 37/36/5 

vt 175.433 0
v 4545.68 -83 -2111.84
vt 175.433 -3.26772
f 11/39/4 24/1/4 40/36/4 39/40/4 

vt 74.8425 -3.26772
f 24/32/3 19/1/3 38/36/3 40/41/3 

vt -74.8425 175.433
f 38/1/1 37/31/1 39/42/1 40/37/1 

g Mesh7 Group7 Model

v 2644.68 0 -6688.72
vt 0 4.75911
v 4545.68 0 -6688.72
vt -74.8425 4.75911
f 11/37/1 2/1/1 41/43/1 42/44/1 

vt 74.8425 111.693
f 2/1/3 11/32/3 16/45/3 6/6/3 

vt 4.75911 0
v 4545.68 2837 -6688.72
vt 4.75911 111.693
f 11/1/4 42/46/4 43/47/4 16/6/4 

v 2644.68 2837 -6688.72
vt -74.8425 111.693
f 42/37/5 41/1/5 44/6/5 43/48/5 

vt -4.75911 0
vt -4.75911 111.693
f 41/49/2 2/1/2 6/6/2 44/50/2 

vt 74.8425 4.75911
f 6/1/6 16/32/6 43/51/6 44/43/6 

