<svg width="456" height="103" xmlns="http://www.w3.org/2000/svg" xmlns:xlink="http://www.w3.org/1999/xlink" xml:space="preserve" overflow="hidden"><g transform="translate(-800 -385)"><path d="M41.2471 87.7844 41.2471 88.8843M41.2471 88.8843 39.7282 88.8843M42.7923 87.7844 41.2733 87.7844M39.7282 88.8843 39.7282 66.1264M42.7923 66.1264 42.7923 87.7844M41.2471 88.8843C53.2154 88.0725 62.5123 78.147 62.5123 66.1264M86.3178 66.1264 86.3178 87.7844M89.3557 88.8843 89.3557 66.1264M87.8368 88.8843 89.3557 88.8843M87.8368 87.7844 87.8368 88.8843M86.3178 87.7844 87.8368 87.7844M66.624 66.1264C66.624 78.0946 75.8947 88.0201 87.8368 88.8319" stroke="#010101" stroke-width="0.445207" stroke-miterlimit="10" stroke-dasharray="1.51894 0.759471" fill="none" transform="matrix(1.00384 0 0 1 801.939 385)"/><path d="M62.3814 13.88 62.3814 20.8462M66.7287 20.8462 66.7287 13.88M66.2835 19.1177 62.8004 19.1177" stroke="#010101" stroke-width="0.445207" stroke-miterlimit="10" fill="none" transform="matrix(1.00384 0 0 1 801.939 385)"/><path d="M7.01856 60.9672 7.01856 66.1526 38.3926 66.1526 7.01856 60.9672Z" fill="#010101" transform="matrix(1.00384 0 0 1 801.939 385)"/><path d="M38.3926 66.1526 33.1287 60.9672 7.01856 60.9672 38.3926 66.1526Z" fill="#010101" transform="matrix(1.00384 0 0 1 801.939 385)"/><path d="M122.013 60.9672 90.639 66.1526 122.013 66.1526 122.013 60.9672Z" fill="#010101" transform="matrix(1.00384 0 0 1 801.939 385)"/><path d="M95.9029 60.9672 90.639 66.1526 122.013 60.9672 95.9029 60.9672Z" fill="#010101" transform="matrix(1.00384 0 0 1 801.939 385)"/><path d="M90.639 13.9062 90.639 66.1526 95.9029 60.9672 90.639 13.9062Z" fill="#010101" transform="matrix(1.00384 0 0 1 801.939 385)"/><path d="M38.3926 13.9062 33.1287 60.9672 38.3926 66.1526 38.3926 13.9062Z" fill="#010101" transform="matrix(1.00384 0 0 1 801.939 385)"/><path d="M33.1287 8.72082 33.1287 60.9672 38.3926 13.9062 33.1287 8.72082Z" fill="#010101" transform="matrix(1.00384 0 0 1 801.939 385)"/><path d="M95.9029 8.72082 33.1287 8.72082 38.3926 13.9062 95.9029 8.72082Z" fill="#010101" transform="matrix(1.00384 0 0 1 801.939 385)"/><path d="M95.9029 8.72082 38.3926 13.9062 90.639 13.9062 95.9029 8.72082Z" fill="#010101" transform="matrix(1.00384 0 0 1 801.939 385)"/><path d="M95.9029 8.72082 90.639 13.9062 95.9029 60.9672 95.9029 8.72082Z" fill="#010101" transform="matrix(1.00384 0 0 1 801.939 385)"/><path d="M66.2835 58.296 62.8004 58.296" stroke="#010101" stroke-width="0.445207" stroke-miterlimit="10" fill="none" transform="matrix(1.00384 0 0 1 801.939 385)"/><path d="M229.963 20.1915 229.963 59.3697M188.166 24.1198 188.166 59.3959M188.166 59.3959 229.963 59.3959M184.263 88.8843 184.263 66.1264M187.301 66.1264 187.301 87.7844M185.782 88.8843C197.751 88.0725 207.048 78.147 207.048 66.1264M211.133 66.1264C211.133 78.0946 220.404 88.0201 232.372 88.8319M230.853 66.1264 230.853 87.7844M233.891 66.1264 233.891 88.8843" stroke="#010101" stroke-width="0.445207" stroke-miterlimit="10" stroke-dasharray="1.51894 0.759471" fill="none" transform="matrix(1.00384 0 0 1 801.939 385)"/><path d="M206.995 64.6074 205.895 64.6074M206.995 66.1264 206.995 64.6074M211.133 66.1264 211.133 64.6074M211.133 64.6074 212.207 64.6074M205.921 64.6074 205.921 63.0885M212.233 64.6074 212.233 63.0885M233.891 66.1264 233.891 63.0885M184.263 66.1264 184.263 63.0885M205.921 63.0885 182.954 63.0885M182.954 66.1264 207.021 66.1264M212.233 63.0885 235.2 63.0885M235.2 66.1264 211.133 66.1264" stroke="#010101" stroke-width="0.445207" stroke-miterlimit="10" fill="none" transform="matrix(1.00384 0 0 1 801.939 385)"/><path d="M209.064 20.1915 229.963 20.1915M188.166 24.1198 229.963 24.1198M188.166 28.0481 229.963 28.0481M188.166 31.9502 229.963 31.9502M188.166 35.8785 229.963 35.8785M188.166 39.8068 229.963 39.8068M188.166 43.7089 229.963 43.7089M188.166 47.6372 229.963 47.6372M188.166 51.5393 229.963 51.5393M188.166 55.4676 229.963 55.4676" stroke="#010101" stroke-width="0.445207" stroke-miterlimit="10" stroke-dasharray="1.51894 0.759471" fill="none" transform="matrix(1.00384 0 0 1 801.939 385)"/><path d="M210.819 19.1177 207.336 19.1177" stroke="#010101" stroke-width="0.445207" stroke-miterlimit="10" fill="none" transform="matrix(1.00384 0 0 1 801.939 385)"/><path d="M151.528 60.9672 151.528 66.1526M266.548 60.9672 266.548 66.1526" stroke="#010101" stroke-width="2.61887" stroke-miterlimit="10" fill="none" transform="matrix(1.00384 0 0 1 801.939 385)"/><path d="M151.528 60.9672 151.528 66.1526 182.902 66.1526 151.528 60.9672Z" fill="#010101" transform="matrix(1.00384 0 0 1 801.939 385)"/><path d="M266.548 60.9672 235.174 66.1526 266.548 66.1526 266.548 60.9672Z" fill="#010101" transform="matrix(1.00384 0 0 1 801.939 385)"/><path d="M177.664 60.9672 151.528 60.9672 182.902 66.1526 177.664 60.9672Z" fill="#010101" transform="matrix(1.00384 0 0 1 801.939 385)"/><path d="M240.412 60.9672 235.174 66.1526 266.548 60.9672 240.412 60.9672Z" fill="#010101" transform="matrix(1.00384 0 0 1 801.939 385)"/><path d="M235.174 13.9062 235.174 66.1526 240.412 60.9672 235.174 13.9062Z" fill="#010101" transform="matrix(1.00384 0 0 1 801.939 385)"/><path d="M182.928 13.9062 177.664 60.9672 182.928 66.1526 182.928 13.9062Z" fill="#010101" transform="matrix(1.00384 0 0 1 801.939 385)"/><path d="M177.664 8.72082 177.664 60.9672 182.902 13.9062 177.664 8.72082Z" fill="#010101" transform="matrix(1.00384 0 0 1 801.939 385)"/><path d="M240.412 8.72082 177.664 8.72082 182.928 13.9062 240.412 8.72082Z" fill="#010101" transform="matrix(1.00384 0 0 1 801.939 385)"/><path d="M240.412 8.72082 182.928 13.9062 235.174 13.9062 240.412 8.72082Z" fill="#010101" transform="matrix(1.00384 0 0 1 801.939 385)"/><path d="M240.412 8.72082 235.174 13.9062 240.412 60.9672 240.412 8.72082Z" fill="#010101" transform="matrix(1.00384 0 0 1 801.939 385)"/><path d="M209.064 20.1915 209.064 24.1198M187.301 87.8106 185.782 87.8106 185.782 88.9105 184.263 88.9105M230.853 87.8106 232.372 87.8106 232.372 88.9105 233.891 88.9105" stroke="#010101" stroke-width="0.445207" stroke-miterlimit="10" stroke-dasharray="1.51894 0.759471" fill="none" transform="matrix(1.00384 0 0 1 801.939 385)"/><path d="M361.325 17.6773 361.325 57.7984M357.554 17.6773 357.554 57.7984" stroke="#010101" stroke-width="2.61887" stroke-miterlimit="10" stroke-dasharray="1.67607 0.838037" fill="none" transform="matrix(1.00384 0 0 1 801.939 385)"/><path d="M323.011 12.6753 433.448 12.6753M363.132 67.881 438.398 67.881M433.422 12.6753 433.422 62.8528 363.132 62.8528" stroke="#010101" stroke-width="2.61887" stroke-miterlimit="10" fill="none" transform="matrix(1.00384 0 0 1 801.939 385)"/><path d="M287.918 67.881 323.011 67.881M318.009 7.69947 318.009 62.8528 287.918 62.8528M323.011 67.881 323.011 12.6753" stroke="#010101" stroke-width="2.61887" stroke-miterlimit="10" fill="none" transform="matrix(1.00384 0 0 1 801.939 385)"/><path d="M365.07 17.6773 365.07 57.7984M368.841 17.6773 368.841 57.7984M372.612 17.6773 372.612 57.7984M376.357 17.6773 376.357 57.7984M380.128 17.6773 380.128 57.7984M383.9 17.6773 383.9 57.7984M387.645 17.6773 387.645 57.7984M391.416 17.6773 391.416 57.7984M395.187 17.6773 395.187 57.7984M398.932 17.6773 398.932 57.7984M402.703 17.6773 402.703 57.7984M406.474 17.6773 406.474 57.7984M410.245 17.6773 410.245 57.7984M413.99 17.6773 413.99 57.7984M417.762 17.6773 417.762 57.7984M421.533 17.6773 421.533 57.7984M425.278 17.6773 425.278 57.7984M429.049 17.6773 429.049 57.7984" stroke="#010101" stroke-width="2.61887" stroke-miterlimit="10" stroke-dasharray="1.67607 0.838037" fill="none" transform="matrix(1.00384 0 0 1 801.939 385)"/><path d="M433.422 62.8266 363.132 67.881 438.398 67.881 433.422 62.8266Z" fill="#010101" transform="matrix(1.00384 0 0 1 801.939 385)"/><path d="M289.228 67.881 323.011 67.881 289.228 63.0099 289.228 67.881Z" fill="#010101" transform="matrix(1.00384 0 0 1 801.939 385)"/><path d="M289.228 62.8266 289.228 63.0361 323.011 67.881 318.009 62.8266 289.228 62.8266Z" fill="#010101" transform="matrix(1.00384 0 0 1 801.939 385)"/><path d="M363.132 62.8266 363.132 67.881 433.422 62.8266 363.132 62.8266Z" fill="#010101" transform="matrix(1.00384 0 0 1 801.939 385)"/><path d="M323.011 12.6753 318.009 62.8266 323.011 67.881 323.011 12.6753Z" fill="#010101" transform="matrix(1.00384 0 0 1 801.939 385)"/><path d="M433.422 12.6753 433.422 62.8266 438.398 67.881 433.422 12.6753Z" fill="#010101" transform="matrix(1.00384 0 0 1 801.939 385)"/><path d="M318.009 7.69947 318.009 62.8266 323.011 12.6753 318.009 7.69947Z" fill="#010101" transform="matrix(1.00384 0 0 1 801.939 385)"/><path d="M438.398 7.69947 318.009 7.69947 323.011 12.6753 438.398 7.69947Z" fill="#010101" transform="matrix(1.00384 0 0 1 801.939 385)"/><path d="M438.398 7.69947 323.011 12.6753 433.422 12.6753 438.398 7.69947Z" fill="#010101" transform="matrix(1.00384 0 0 1 801.939 385)"/><path d="M438.398 7.69947 433.422 12.6753 438.398 67.881 438.398 7.69947Z" fill="#010101" transform="matrix(1.00384 0 0 1 801.939 385)"/><path d="M324.32 84.6417 324.32 67.8286M327.227 67.8286 327.227 83.5942M359.02 67.8286 359.02 83.5942M361.927 84.6417 361.927 67.8286M345.114 67.8286C345.114 76.5495 351.792 83.8299 360.487 84.5894M325.761 84.6417C334.482 83.8823 341.186 76.5756 341.186 67.8286" stroke="#010101" stroke-width="0.419019" stroke-miterlimit="10" stroke-dasharray="1.67607 0.838037" fill="none" transform="matrix(1.00384 0 0 1 801.939 385)"/><path d="M341.448 91.5555 341.448 12.6491M344.8 91.5555 344.8 12.6491M361.953 67.8286 361.953 64.8955M346.162 64.8955 363.211 64.8955M363.184 67.8286 345.088 67.8286M340.086 64.8955 323.037 64.8955M324.32 67.8286 324.32 64.8955M323.063 67.8286 341.133 67.8286" stroke="#010101" stroke-width="0.419019" stroke-miterlimit="10" fill="none" transform="matrix(1.00384 0 0 1 801.939 385)"/><path d="M433.448 21.4223 343.15 21.4223M433.448 54.0272 343.15 54.0272M343.124 91.5555 343.124 12.6491" stroke="#010101" stroke-width="0.419019" stroke-miterlimit="10" stroke-dasharray="8.35418 1.67607 1.67607 1.67607" fill="none" transform="matrix(1.00384 0 0 1 801.939 385)"/><path d="M345.219 19.3534 345.219 12.6491" stroke="#010101" stroke-width="0.419019" stroke-miterlimit="10" fill="none" transform="matrix(1.00384 0 0 1 801.939 385)"/><path d="M433.448 57.7984 353.809 57.7984M433.448 17.6773 353.809 17.6773M353.783 17.6773 353.783 57.7984" stroke="#010101" stroke-width="0.419019" stroke-miterlimit="10" stroke-dasharray="1.67607 0.838037" fill="none" transform="matrix(1.00384 0 0 1 801.939 385)"/><path d="M340.086 66.3621 340.086 64.8955M341.133 66.3621 340.086 66.3621M341.133 67.8286 341.133 66.3621M345.114 67.8286 345.114 66.3621M345.114 66.3621 346.162 66.3621M346.162 66.3621 346.162 64.8955M341.029 12.6491 341.029 19.3272M344.8 17.6773 341.448 17.6773" stroke="#010101" stroke-width="0.419019" stroke-miterlimit="10" fill="none" transform="matrix(1.00384 0 0 1 801.939 385)"/><path d="M327.227 83.5942 325.761 83.5942 325.761 84.6417 324.294 84.6417M359.02 83.5942 360.487 83.5942 360.487 84.6417 361.953 84.6417M429.049 17.6773 429.049 57.7984M425.278 17.6773 425.278 57.7984M421.533 17.6773 421.533 57.7984M417.762 17.6773 417.762 57.7984M413.99 17.6773 413.99 57.7984M410.245 17.6773 410.245 57.7984M406.474 17.6773 406.474 57.7984M402.703 17.6773 402.703 57.7984M398.932 17.6773 398.932 57.7984M395.187 17.6773 395.187 57.7984M391.416 17.6773 391.416 57.7984M387.645 17.6773 387.645 57.7984M383.9 17.6773 383.9 57.7984M380.128 17.6773 380.128 57.7984M376.357 17.6773 376.357 57.7984M372.612 17.6773 372.612 57.7984M368.841 17.6773 368.841 57.7984M365.07 17.6773 365.07 57.7984M361.325 17.6773 361.325 57.7984M357.554 17.6773 357.554 57.7984" stroke="#010101" stroke-width="0.419019" stroke-miterlimit="10" stroke-dasharray="1.67607 0.838037" fill="none" transform="matrix(1.00384 0 0 1 801.939 385)"/></g></svg>