<svg width="409" height="125" xmlns="http://www.w3.org/2000/svg" xmlns:xlink="http://www.w3.org/1999/xlink" xml:space="preserve" overflow="hidden"><defs><clipPath id="clip0"><rect x="800" y="94" width="409" height="125"/></clipPath><clipPath id="clip1"><rect x="816" y="102" width="151" height="104"/></clipPath></defs><g clip-path="url(#clip0)" transform="translate(-800 -94)"><path d="M155.325 18.9251 155.325 58.8863M151.575 18.9251 151.575 58.8863M147.824 18.9251 147.824 58.8863M144.074 18.9251 144.074 58.8863M140.324 18.9251 140.324 58.8863M136.574 18.9251 136.574 58.8863M132.823 18.9251 132.823 58.8863M129.073 18.9251 129.073 58.8863M125.323 18.9251 125.323 58.8863M121.573 18.9251 121.573 58.8863M117.822 18.9251 117.822 58.8863M114.072 18.9251 114.072 58.8863M110.322 18.9251 110.322 58.8863M106.572 18.9251 106.572 58.8863M102.846 18.9251 102.846 58.8863M99.096 18.9251 99.096 58.8863M95.3457 18.9251 95.3457 58.8863" stroke="#010101" stroke-width="2.48361" stroke-miterlimit="10" stroke-dasharray="1.66402 0.844427" fill="none" transform="matrix(1.00368 0 0 1 801.478 94)"/><path d="M49.7218 68.8705 49.7218 13.933 159.696 13.933 159.696 63.8784 82.2074 63.8784 82.2074 68.8705 164.688 68.8705 164.688 8.91615 44.7298 8.91615 44.7298 63.8784 14.7526 63.8784 14.7526 68.8705 49.7218 68.8705Z" stroke="#010101" stroke-width="2.48361" stroke-miterlimit="10" fill="none" transform="matrix(1.00368 0 0 1 801.478 94)"/><path d="M44.6801 63.9777 14.7278 68.8953 49.6722 68.8953 44.6801 63.9777Z" fill="#010101" transform="matrix(1.00368 0 0 1 801.478 94)"/><path d="M14.7278 63.9777 14.7278 68.8953 44.6801 63.9777 14.7278 63.9777Z" fill="#010101" transform="matrix(1.00368 0 0 1 801.478 94)"/><path d="M82.1329 63.9777 82.1329 68.8953 164.638 68.8953 82.1329 63.9777Z" fill="#010101" transform="matrix(1.00368 0 0 1 801.478 94)"/><path d="M164.638 68.8953 159.646 63.9777 82.1329 63.9777 164.638 68.8953Z" fill="#010101" transform="matrix(1.00368 0 0 1 801.478 94)"/><path d="M49.6722 14.0076 44.6801 63.9777 49.6722 68.8953 49.6722 14.0076Z" fill="#010101" transform="matrix(1.00368 0 0 1 801.478 94)"/><path d="M159.646 14.0076 159.646 63.9777 164.638 68.8953 159.646 14.0076Z" fill="#010101" transform="matrix(1.00368 0 0 1 801.478 94)"/><path d="M44.6801 8.99066 49.6722 14.0076 159.646 14.0076 44.6801 8.99066Z" fill="#010101" transform="matrix(1.00368 0 0 1 801.478 94)"/><path d="M44.6801 8.99066 44.6801 63.9777 49.6722 14.0076 44.6801 8.99066Z" fill="#010101" transform="matrix(1.00368 0 0 1 801.478 94)"/><path d="M164.638 8.99066 44.6801 8.99066 159.646 14.0076 164.638 8.99066Z" fill="#010101" transform="matrix(1.00368 0 0 1 801.478 94)"/><path d="M164.638 8.99066 159.646 14.0076 164.638 68.8953 164.638 8.99066Z" fill="#010101" transform="matrix(1.00368 0 0 1 801.478 94)"/><g clip-path="url(#clip1)"><path d="M159.696 22.6753 65.9646 22.6753M159.696 55.1361 65.9646 55.1361M65.9646 102.598 65.9646 22.6753M65.9646 102.598 38.4711 102.598M38.4711 68.8705 38.4711 125" stroke="#010101" stroke-width="0.422213" stroke-miterlimit="10" stroke-dasharray="8.32009 1.66402 1.66402 1.66402" fill="none" transform="matrix(1.00368 0 0 1 801.478 94)"/></g><g><path d="M50.9885 65.9646 50.9885 35.9875M53.8943 37.0306 53.8943 65.9646M80.9656 65.9646C80.9656 49.9702 68.3986 36.8071 52.429 35.9875M159.696 18.9251 91.5955 18.9251M155.325 18.9251 155.325 58.8863M151.575 18.9251 151.575 58.8863M147.824 18.9251 147.824 58.8863M144.074 18.9251 144.074 58.8863M140.324 18.9251 140.324 58.8863M136.574 18.9251 136.574 58.8863M132.823 18.9251 132.823 58.8863M129.073 18.9251 129.073 58.8863M125.323 18.9251 125.323 58.8863M121.573 18.9251 121.573 58.8863M117.822 18.9251 117.822 58.8863M114.072 18.9251 114.072 58.8863M110.322 18.9251 110.322 58.8863M106.572 18.9251 106.572 58.8863M102.846 18.9251 102.846 58.8863M99.096 18.9251 99.096 58.8863M95.3457 18.9251 95.3457 58.8863M91.5955 18.9251 91.5955 58.8863M159.696 58.8863 91.5955 58.8863" stroke="#010101" stroke-width="0.422213" stroke-miterlimit="10" stroke-dasharray="1.66402 0.844427" fill="none" transform="matrix(1.00368 0 0 1 801.478 94)"/><path d="M80.9656 67.43 80.9656 65.9646M79.9225 67.43 80.9656 67.43M79.9225 67.43 79.9225 68.8953M50.9885 68.8705 50.9885 65.9646M82.2074 68.8705 49.7218 68.8705M82.2074 65.9646 49.7218 65.9646" stroke="#010101" stroke-width="0.422213" stroke-miterlimit="10" fill="none" transform="matrix(1.00368 0 0 1 801.478 94)"/><path d="M50.9885 35.9875 52.4538 35.9875M52.429 35.9875 52.429 37.0306M52.429 37.0306 53.8943 37.0306" stroke="#010101" stroke-width="0.422213" stroke-miterlimit="10" stroke-dasharray="1.66402 0.844427" fill="none" transform="matrix(1.00368 0 0 1 801.478 94)"/></g><path d="M296.841 68.2744 296.841 69.5907 295.922 69.5907M203.656 68.2744 237.582 68.2744M232.689 10.1331 232.689 63.3568 203.681 63.3568M237.582 68.2744 237.582 14.9265M348.947 10.1331 348.947 68.2744M237.582 14.9265 344.154 14.9265M344.154 14.9265 344.154 63.3568 269.049 63.3568 269.049 68.2495 348.947 68.2495" stroke="#010101" stroke-width="2.48361" stroke-miterlimit="10" fill="none" transform="matrix(1.00368 0 0 1 801.478 94)"/><path d="M281.815 19.7447 281.815 58.489M285.441 19.7447 285.441 58.489M289.067 19.7447 289.067 58.489M292.693 19.7447 292.693 58.489M296.344 19.7447 296.344 58.489M299.97 19.7447 299.97 58.489M303.596 19.7447 303.596 58.489M307.247 19.7447 307.247 58.489M310.873 19.7447 310.873 58.489M314.499 19.7447 314.499 58.489M318.15 19.7447 318.15 58.489M321.776 19.7447 321.776 58.489M325.402 19.7447 325.402 58.489M329.028 19.7447 329.028 58.489M332.679 19.7447 332.679 58.489M336.305 19.7447 336.305 58.489M339.931 19.7447 339.931 58.489M295.947 69.5907 295.947 71.0064" stroke="#010101" stroke-width="2.48361" stroke-miterlimit="10" stroke-dasharray="1.61435 0.794755" fill="none" transform="matrix(1.00368 0 0 1 801.478 94)"/><path d="M269.049 63.3568 269.049 68.2744 348.947 68.2744 269.049 63.3568Z" fill="#010101" transform="matrix(1.00368 0 0 1 801.478 94)"/><path d="M344.154 63.3568 269.049 63.3568 348.947 68.2744 344.154 63.3568Z" fill="#010101" transform="matrix(1.00368 0 0 1 801.478 94)"/><path d="M203.656 63.3568 203.656 68.2744 237.582 68.2744 203.656 63.3568Z" fill="#010101" transform="matrix(1.00368 0 0 1 801.478 94)"/><path d="M237.582 68.2744 232.689 63.3568 203.656 63.3568 237.582 68.2744Z" fill="#010101" transform="matrix(1.00368 0 0 1 801.478 94)"/><path d="M237.582 14.9265 232.689 63.3568 237.582 68.2744 237.582 14.9265Z" fill="#010101" transform="matrix(1.00368 0 0 1 801.478 94)"/><path d="M344.154 14.9265 344.154 63.3568 348.947 68.2744 344.154 14.9265Z" fill="#010101" transform="matrix(1.00368 0 0 1 801.478 94)"/><path d="M348.947 10.1331 237.582 14.9265 344.154 14.9265 348.947 10.1331Z" fill="#010101" transform="matrix(1.00368 0 0 1 801.478 94)"/><path d="M348.947 10.1331 344.154 14.9265 348.947 68.2744 348.947 10.1331Z" fill="#010101" transform="matrix(1.00368 0 0 1 801.478 94)"/><path d="M232.689 10.1331 237.582 14.9265 348.947 10.1331 232.689 10.1331Z" fill="#010101" transform="matrix(1.00368 0 0 1 801.478 94)"/><path d="M232.689 10.1331 232.689 63.3568 237.582 14.9265 232.689 10.1331Z" fill="#010101" transform="matrix(1.00368 0 0 1 801.478 94)"/><path d="M344.178 23.3708 253.353 23.3708M344.178 54.8381 253.353 54.8381M253.353 100.859 253.353 23.3708M253.353 100.859 226.704 100.859M226.704 68.175 226.704 122.591" stroke="#010101" stroke-width="0.397377" stroke-miterlimit="10" stroke-dasharray="8.07173 1.61435 1.61435 1.61435" fill="none" transform="matrix(1.00368 0 0 1 801.478 94)"/><path d="M267.882 68.175 267.882 71.0064M295.947 70.9815 267.882 70.9815M238.799 68.175C238.799 84.2192 251.838 97.2333 267.882 97.2333 283.926 97.2333 296.17 85.0636 296.94 69.5907M344.178 19.7447 278.164 19.7447M344.178 58.489 278.164 58.489M339.931 19.7447 339.931 58.489M336.305 19.7447 336.305 58.489M332.679 19.7447 332.679 58.489M329.028 19.7447 329.028 58.489M325.402 19.7447 325.402 58.489M321.776 19.7447 321.776 58.489M318.15 19.7447 318.15 58.489M314.499 19.7447 314.499 58.489M310.873 19.7447 310.873 58.489M307.247 19.7447 307.247 58.489M303.596 19.7447 303.596 58.489M299.97 19.7447 299.97 58.489M296.344 19.7447 296.344 58.489M292.693 19.7447 292.693 58.489M289.067 19.7447 289.067 58.489M285.441 19.7447 285.441 58.489M281.815 19.7447 281.815 58.489M278.164 19.7447 278.164 58.489" stroke="#010101" stroke-width="0.397377" stroke-miterlimit="10" stroke-dasharray="1.61435 0.794755" fill="none" transform="matrix(1.00368 0 0 1 801.478 94)"/><path d="M238.799 66.7594 238.799 68.175M239.817 66.7594 238.799 66.7594M239.817 66.7594 239.817 65.3437M269.099 65.3437 237.607 65.3437M267.882 65.3437 267.882 68.175M269.099 68.175 237.607 68.175" stroke="#010101" stroke-width="0.397377" stroke-miterlimit="10" fill="none" transform="matrix(1.00368 0 0 1 801.478 94)"/></g></svg>